<svg width="160" height="45" viewBox="0 0 160 45" fill="none" xmlns="http://www.w3.org/2000/svg">
<path d="M69.3279 43.6381H56.418V8.64146H68.5186C74.6146 8.64146 78.5438 12.179 78.5438 17.6615C78.5438 21.3034 76.7424 24.2274 73.7792 25.5067C77.2514 26.7206 79.6011 30.1407 79.6011 34.122C79.6011 39.9961 75.6589 43.6511 69.3149 43.6511M60.5168 39.8525H69.0147C73.009 39.8525 75.3978 37.5421 75.3978 33.6782C75.3978 30.0101 72.513 27.5561 68.2184 27.5561H60.5298V39.8525H60.5168ZM60.5168 23.7444H68.1531C72.1083 23.7444 74.3797 21.695 74.3797 18.1184C74.3797 14.5417 72.017 12.4531 68.362 12.4531H60.5168V23.7444Z" fill="#231F20"/>
<path d="M89.8115 44.1472C85.2428 44.1472 82.4102 41.6409 82.4102 37.6073C82.4102 33.7826 84.9817 31.2763 90.2815 29.9057L97.7481 27.9477V25.0237C97.7481 22.0605 96.2861 20.6116 93.2838 20.6116C90.9341 20.6116 88.5453 21.3165 85.5691 22.896L85.2428 23.0656L83.9244 19.972L84.1854 19.8284C87.6707 17.8964 91.2735 17.2177 93.4796 17.2177C98.6619 17.2177 101.638 19.8806 101.638 24.5146V38.3905C101.638 39.9178 101.912 40.3355 103.962 40.5835L104.301 40.6227L103.87 43.9253H103.57C99.5887 43.9253 97.9047 42.7765 97.7873 39.97V39.9178C95.8031 42.6329 92.9966 44.1211 89.7985 44.1211M97.735 30.9892L90.6861 32.8036C87.6969 33.626 86.3001 35.0488 86.3001 37.2679C86.3001 40.3094 89.0283 40.7663 90.66 40.7663C95.0982 40.7663 97.7481 36.4456 97.7481 32.2684V30.9892H97.735Z" fill="#231F20"/>
<path d="M127.223 43.6381H123.294V26.4335C123.294 24.2927 122.654 20.716 118.334 20.716C114.927 20.716 111.246 24.2927 111.246 30.0754V43.6381H107.316V17.8964L110.097 17.2177H111.246V22.165C113.125 19.0452 116.128 17.2177 119.456 17.2177C124.39 17.2177 127.223 20.3636 127.223 25.833V43.6381Z" fill="#231F20"/>
<path d="M153.149 43.6381H148.332L140.213 30.7673L135.722 35.5057V43.6381H131.793V7.80604L134.573 7.1142H135.722V30.3887L147.653 17.7267H152.548L143.084 27.9346L153.149 43.6381Z" fill="#231F20"/>
<path d="M155.3 18.2358V20.9771H154.713V18.2358H153.93V17.7267H156.07V18.2358H155.3Z" fill="#231F20"/>
<path d="M158.513 19.8806H158.526L159.218 17.7267H160.001V20.9771H159.414V18.9407H159.401L158.696 20.9771H158.278L157.573 18.9407H157.56V20.9771H156.973V17.7267H157.769L158.513 19.8806Z" fill="#231F20"/>
<path d="M49.8671 9.07223C49.371 8.11932 48.392 7.51885 47.3086 7.51885H32.1534L32.6755 5.4825C32.7147 5.3128 32.5711 5.15616 32.4014 5.20837L30.3259 5.74357C30.3259 5.74357 30.2606 5.74357 30.2345 5.70441L29.5557 4.41211C29.4774 4.26852 29.2816 4.24241 29.1771 4.37294L28.4984 5.16921C28.4984 5.16921 28.3417 5.16921 28.3678 5.10394L29.0205 2.01025C29.0597 1.81445 28.8508 1.67086 28.6811 1.76223L26.8406 2.85873C26.8406 2.85873 26.7492 2.85873 26.7361 2.83262L25.3002 0.117482C25.2089 -0.0391607 24.987 -0.0391607 24.8956 0.117482L23.4597 2.83262C23.4597 2.83262 23.3944 2.88484 23.3553 2.85873L21.5147 1.76223C21.345 1.6578 21.1362 1.81445 21.1753 2.01025L21.828 5.10394C21.841 5.18227 21.7497 5.23448 21.6975 5.16921L21.0187 4.37294C20.9142 4.25546 20.7184 4.26852 20.6401 4.41211L19.9613 5.70441C19.9613 5.70441 19.9091 5.75662 19.87 5.74357L17.7944 5.20837C17.6247 5.16921 17.4681 5.3128 17.5203 5.4825L18.0425 7.51885H2.88726C1.80382 7.51885 0.824802 8.11932 0.328767 9.07223C-0.167269 10.0251 -0.101999 11.1739 0.524572 12.0615L22.7417 43.5206C23.2769 44.2777 24.1646 44.7346 25.0914 44.7346C26.0182 44.7346 26.9058 44.2777 27.441 43.5206L49.6582 12.0615C50.2717 11.1739 50.35 10.0251 49.854 9.07223M18.6038 8.18459C18.7996 8.08016 18.904 7.84519 18.8518 7.62328L18.4732 6.14823L19.9483 6.52678C20.1702 6.579 20.3921 6.48762 20.5096 6.27877L20.9534 5.43028L22.6765 7.44053C22.8331 7.62328 23.1203 7.47969 23.0681 7.24473L22.1674 3.00232L23.303 3.68111C23.538 3.81164 23.8252 3.73332 23.9557 3.49836L25.1044 1.33146L26.2531 3.49836C26.3837 3.73332 26.6709 3.81164 26.9058 3.68111L28.0415 3.00232L27.1408 7.24473C27.0886 7.47969 27.3758 7.62328 27.5324 7.44053L29.2555 5.43028L29.6993 6.27877C29.8037 6.47457 30.0387 6.579 30.2606 6.52678L31.7357 6.14823L31.3571 7.62328C31.3049 7.84519 31.3963 8.0671 31.6051 8.18459L32.4536 8.62841L28.7855 11.7743C28.6289 11.9179 28.5897 12.1398 28.6811 12.3226L29.2033 13.2494L25.6527 12.6359V14.1501H24.5954V12.6359L21.0448 13.2494L21.5669 12.3226C21.6714 12.1398 21.6322 11.9049 21.4625 11.7743L17.7944 8.62841L18.6429 8.18459H18.6038ZM48.7444 11.4219L26.5273 42.881C25.8224 43.873 24.3473 43.873 23.6424 42.881L1.42527 11.4219C0.602897 10.247 1.45138 8.62841 2.87422 8.62841H16.5935L20.6923 12.1398C20.6923 12.1398 20.7315 12.2051 20.7054 12.2312L19.7394 13.9804C19.6742 14.0848 19.7655 14.2284 19.8961 14.2023L23.7208 13.5365C23.7208 13.5365 23.8121 13.5627 23.8121 13.6149V14.8289C23.8121 14.8289 23.8513 14.9072 23.8905 14.9072H26.2923C26.2923 14.9072 26.3706 14.868 26.3706 14.8289V13.6149C26.3706 13.6149 26.4098 13.5365 26.462 13.5365L30.2867 14.2023C30.4172 14.2284 30.5086 14.0848 30.4433 13.9804L29.4774 12.2312C29.4774 12.2312 29.4774 12.1529 29.4904 12.1398L33.5893 8.62841H47.3086C48.7444 8.62841 49.5799 10.247 48.7575 11.4219" fill="white"/>
<path d="M18.618 8.18459L17.7695 8.62841L21.4376 11.7743C21.5942 11.9179 21.6334 12.1398 21.542 12.3226L21.0199 13.2494L24.5704 12.6359V14.1501H25.6278V12.6359L29.1783 13.2494L28.6562 12.3226C28.5518 12.1398 28.5909 11.9049 28.7606 11.7743L32.4287 8.62841L31.5802 8.18459C31.3844 8.08016 31.28 7.84519 31.3322 7.62328L31.7107 6.14823L30.2357 6.52678C30.0138 6.579 29.7919 6.48762 29.6744 6.27876L29.2306 5.43028L27.5075 7.44053C27.3508 7.62328 27.0637 7.47969 27.1159 7.24473L28.0166 3.00232L26.8809 3.68111C26.646 3.81164 26.3588 3.73332 26.2282 3.49835L25.0795 1.33146L23.9308 3.49835C23.8003 3.73332 23.5131 3.81164 23.2781 3.68111L22.1425 3.00232L23.0432 7.24473C23.0954 7.47969 22.8082 7.62328 22.6516 7.44053L20.9285 5.43028L20.4847 6.27876C20.3802 6.47457 20.1453 6.579 19.9234 6.52678L18.4483 6.14823L18.8269 7.62328C18.8791 7.84519 18.7877 8.0671 18.5789 8.18459" fill="#00A651"/>
<path d="M47.3092 8.62841H33.5899L29.4911 12.1398C29.4911 12.1398 29.4519 12.2051 29.4781 12.2312L30.444 13.9804C30.5093 14.0848 30.4179 14.2284 30.2874 14.2023L26.4627 13.5366C26.4627 13.5366 26.3713 13.5627 26.3713 13.6149V14.8289C26.3713 14.8289 26.3321 14.9072 26.293 14.9072H23.8911C23.8911 14.9072 23.8128 14.868 23.8128 14.8289V13.6149C23.8128 13.6149 23.7736 13.5235 23.7214 13.5366L19.8967 14.2023C19.7662 14.2284 19.6748 14.0848 19.7401 13.9804L20.7061 12.2312C20.7061 12.2312 20.7061 12.1529 20.693 12.1398L16.5942 8.62841H2.87489C1.439 8.62841 0.603571 10.2471 1.42595 11.4219L23.6431 42.881C24.348 43.873 25.8231 43.873 26.5279 42.881L48.7451 11.4219C49.5675 10.2471 48.719 8.62841 47.2962 8.62841" fill="#ED1C24"/>
</svg>
