<svg version="1.1" id="Layer_1" xmlns="http://www.w3.org/2000/svg" xmlns:xlink="http://www.w3.org/1999/xlink" x="0px" y="0px" viewBox="0 0 118.9 104.9" style="enable-background:new 0 0 118.9 104.9;" xml:space="preserve">
 <style type="text/css">
  .st0{fill:#FFFFFF;}
	.st1{fill:#DF271C;}
	.st2{fill:#00943C;}
 </style>
 <g>
  <g>
   <path class="st0" d="M110.8,16.9H76.9l1.3-3.3c0.2-0.5,0.1-1-0.2-1.3c-0.3-0.4-0.8-0.5-1.3-0.4l-5.1,1.2L70,10.3
			c-0.2-0.4-0.6-0.6-1-0.7l0.9-4.2c0.1-0.5-0.1-1-0.5-1.4C69,3.7,68.4,3.7,68,4l-4.2,2.5l-3.1-5.8C60.5,0.3,60,0,59.5,0
			c-0.5,0-0.9,0.3-1.2,0.7l-3.1,5.8L51.1,4c-0.5-0.3-1-0.2-1.4,0.1c-0.4,0.3-0.6,0.8-0.5,1.3L50,9.6c-0.4,0.1-0.8,0.3-1,0.7
			l-1.5,2.8l-5.1-1.3c-0.5-0.1-1,0-1.3,0.4c-0.3,0.4-0.4,0.9-0.3,1.4l1.3,3.4H8.1c-4.5,0-8.1,3.7-8.1,8.2c0,1.7,0.5,3.2,1.5,4.7
			l51.4,71.7c1.5,2.1,4,3.4,6.7,3.4c2.6,0,5.1-1.2,6.7-3.4l51.3-72c0.8-1.3,1.3-2.8,1.3-4.4C118.9,21.1,115.9,16.9,110.8,16.9">
   </path>
   <path class="st0" d="M110.8,18.7h-36l2.1-5.6l-6.1,1.5l-2-3.7l-1.9,2.3l1.7-8.1l-5.4,3.2l-3.7-7l-3.7,7l-5.4-3.2l1.7,8l-1.9-2.3
			l-2,3.7L42.1,13l2.2,5.7H8.1c-3.5,0-6.3,2.9-6.3,6.4c0,1.3,0.4,2.5,1.1,3.7l51.4,71.7c1.2,1.7,3.1,2.6,5.2,2.6
			c2.1,0,3.9-1,5.2-2.7l51.2-71.9c0.6-1,1-2.2,1-3.4C117.1,22,114.7,18.7,110.8,18.7">
   </path>
   <path class="st1" d="M110.8,22.9H76.4l-7.3,5.8l2.9,5l-9.7-1.6V35h-5.5l0-2.9l-9.7,1.6l2.8-5l-7.3-5.8H8.1C6.8,22.9,6,24,6,25.1
			c0,0.4,0.1,0.9,0.4,1.3h0L57.8,98c0.4,0.6,1.1,0.9,1.8,0.9c0.7,0,1.4-0.3,1.8-0.9l51.2-71.8c0.2-0.3,0.3-0.7,0.3-1.1
			C112.9,24,112.2,22.9,110.8,22.9">
   </path>
   <path d="M110.8,18.7h-36l2.1-5.6l-6.1,1.5l-2-3.7l-1.9,2.3l1.7-8.1l-5.4,3.2l-3.7-7l-3.7,7l-5.4-3.2l1.7,8l-1.9-2.3l-2,3.7
			L42.1,13l2.2,5.7H8.1c-3.5,0-6.3,2.9-6.3,6.4c0,1.3,0.4,2.5,1.1,3.7l51.4,71.7c1.2,1.7,3.1,2.6,5.2,2.6c2.1,0,3.9-1,5.2-2.7
			l51.2-71.9c0.6-1,1-2.2,1-3.4C117.1,22,114.7,18.7,110.8,18.7 M46.7,19.6l-1.5-3.9l3.2,0.8c0.5,0.2,1-0.2,1.2-0.6l0.9-1.8l3.4,4
			c0.7,0.7,1.3,0.4,1.1-0.7L53.2,9l2.5,1.5c0.5,0.3,1.1,0.2,1.3-0.3l2.5-4.8l2.5,4.8c0.2,0.5,0.8,0.6,1.3,0.3L65.9,9L64,17.6
			c-0.2,1.1,0.4,1.4,1.1,0.7l3.3-3.9l1,1.8c0.2,0.4,0.7,0.6,1.2,0.5l3.2-0.8l-1.5,3.9c-0.2,0.6-0.1,1.1,0.3,1.3l1.3,1.3l-6.5,5.1
			c-0.5,0.3-0.5,1-0.2,1.5l1.2,2.1L61,29.9c-0.5-0.1-0.6,0.1-0.6,0.5v2.6h-1.7l0-2.6c0-0.4-0.1-0.6-0.6-0.5l-7.4,1.2l1.2-2.1
			c0.3-0.5,0.3-1.2-0.2-1.5l-6.5-5.1l1.3-1.3C46.8,20.8,46.9,20.2,46.7,19.6 M114.4,27.4L63.2,99.3c-0.9,1.2-2.2,1.8-3.6,1.8
			c-1.4,0-2.8-0.7-3.6-1.8L4.6,27.7C4,26.9,3.8,26,3.8,25.1c0-2.5,1.9-4.5,4.3-4.5h36.1l-1.9,2l7.6,6l-2.8,5l9.7-1.6l0,2.9h5.5v-2.9
			l9.7,1.6l-2.9-5l7.6-6l-1.9-2h35.9c2.7,0,4.3,2.3,4.3,4.5C115.1,26,114.9,26.8,114.4,27.4">
   </path>
   <path class="st2" d="M67.4,27.6c-0.5,0.3-0.5,1-0.2,1.5l1.2,2.1L61,29.9c-0.5-0.1-0.6,0.1-0.6,0.5v2.6h-1.7l0-2.6
			c0-0.4-0.1-0.6-0.6-0.5l-7.4,1.2l1.2-2.1c0.3-0.5,0.3-1.2-0.2-1.5l-6.5-5.1l1.3-1.3c0.4-0.3,0.5-0.9,0.2-1.4l-1.5-3.9l3.2,0.8
			c0.5,0.2,1-0.2,1.2-0.6l0.9-1.8l3.4,4c0.7,0.7,1.3,0.4,1.1-0.7L53.2,9l2.5,1.5c0.5,0.3,1.1,0.2,1.3-0.3l2.5-4.8l2.5,4.8
			c0.2,0.5,0.8,0.6,1.3,0.3L65.9,9L64,17.6c-0.2,1.1,0.4,1.4,1.1,0.7l3.3-3.9l1,1.8c0.2,0.4,0.7,0.6,1.2,0.5l3.2-0.8l-1.5,3.9
			c-0.2,0.6-0.1,1.1,0.3,1.3l1.3,1.3L67.4,27.6z">
   </path>
  </g>
 </g>
</svg>